<svg width="152" height="99" viewBox="0 0 152 99" fill="none" xmlns="http://www.w3.org/2000/svg">
<g clip-path="url(#clip0_531_8635)">
<path d="M71.0566 35.6199C71.0566 45.4571 67.0884 54.3616 60.6697 60.8089C54.2554 67.2525 45.387 71.2397 35.5982 71.2397H0.141586V56.6785H36.6093C47.5008 56.6785 56.3294 47.8095 56.3294 36.8681V33.9467C56.3294 23.0053 47.5008 14.1363 36.6093 14.1363H0.141586V0H35.5991C55.1794 0 71.0566 15.9462 71.0566 35.6199Z" fill="#FF6514"/>
<path d="M37.2827 27.8524H0.141586V42.5832H37.2827V27.8524Z" fill="#FF6514"/>
<path d="M130.003 55.6208L152 70.4337H130.003L103.853 52.8253L77.7004 35.2169L103.853 17.6084L130.003 0H152L130.003 14.8129L125.848 17.6084L99.6951 35.2169L125.848 52.8253L130.003 55.6208Z" fill="#FF6514"/>
<path d="M15.1202 91.8425C15.1202 95.093 12.7949 98.5222 8.28122 98.5222H0V76.5035H5.9831C9.8723 76.5035 12.3465 79.372 12.3465 82.3362C12.3465 84.6722 10.8099 86.1201 10.2798 86.1201C12.3873 86.1201 15.1202 88.3056 15.1202 91.8434V91.8425ZM4.39202 80.8053V85.108H6.1737C7.2202 85.108 8.24038 84.2063 8.24038 82.9225C8.24038 81.6387 7.27466 80.8053 6.25539 80.8053H4.39293H4.39202ZM10.8235 91.5279C10.8235 90.2578 9.95308 88.9868 7.85917 88.9868H4.39202V94.2049H7.87279C9.30049 94.2049 10.8235 93.2211 10.8235 91.5279Z" fill="#222121"/>
<path d="M19.9661 90.3809V76.5035H24.3989V90.3672C24.3989 92.7716 26.2886 94.5195 28.4098 94.5195C30.5309 94.5195 32.4478 92.757 32.4478 90.3672V76.5035H36.8807V90.3809C36.8807 95.3665 33.0868 99 28.4234 99C23.76 99 19.9661 95.3665 19.9661 90.3809Z" fill="#222121"/>
<path d="M41.918 94.7246L45.4396 92.2391C46.4053 93.7964 47.8058 94.5067 49.6955 94.5067C51.7622 94.5067 53.149 93.6597 53.149 92.4853C53.149 90.8732 50.5251 89.6031 48.227 88.4561C45.7655 87.227 43.0598 85.8748 43.0598 82.3644C43.0598 78.5532 46.2683 76.0403 50.2936 76.0403C53.2852 76.0403 55.7594 77.2831 56.7523 79.9464L53.503 82.2277C52.8504 80.9165 51.5861 80.384 50.3617 80.384C48.7162 80.384 47.4927 81.3405 47.4927 82.4739C47.4927 83.785 49.1518 84.2363 51.6669 85.4244C55.2974 87.1449 57.5819 89.0032 57.5819 92.3904C57.5819 96.406 54.319 98.9608 49.6274 98.9608C46.0378 98.9608 43.3866 97.4582 41.918 94.7265V94.7246Z" fill="#222121"/>
<path d="M73.863 98.5222L67.2001 88.8783V98.5222H62.808V76.5035H67.2001V86.0234L73.3593 76.5035H78.4447L71.4151 87.2808L79.2198 98.5222H73.863Z" fill="#222121"/>
<path d="M85.5714 92.9968C87.3168 92.9968 88.7318 91.5754 88.7318 89.8219C88.7318 88.0685 87.3168 86.6471 85.5714 86.6471C83.826 86.6471 82.411 88.0685 82.411 89.8219C82.411 91.5754 83.826 92.9968 85.5714 92.9968Z" fill="#222121"/>
<path d="M112.218 76.4488V98.9316H112.013L99.0007 86.2149V98.5496H94.5951V76.0932H94.8129L107.798 88.7825V76.4479H112.218V76.4488Z" fill="#222121"/>
<path d="M122.993 80.8609V85.1636H130.553V89.5758H122.993V94.1238H131.804V98.5222H118.587V76.5035H131.804V80.8609H122.993Z" fill="#222121"/>
<path d="M151.471 80.8883H146.086V98.5222H141.667V80.8883H136.269V76.5035H151.47V80.8883H151.471Z" fill="#222121"/>
</g>
<defs>
<clipPath id="clip0_531_8635">
<rect width="152" height="99" fill="white"/>
</clipPath>
</defs>
</svg>
