<svg width="104" height="37" viewBox="0 0 104 37" fill="none" xmlns="http://www.w3.org/2000/svg">
<path d="M75.8014 0.71233C77.234 0.726405 78.6668 0.714827 80.0996 0.716189C80.1047 4.8378 80.1022 8.95759 80.0996 13.0774C78.667 13.0785 77.233 13.0803 75.8007 13.0785C75.8014 8.95736 75.7975 4.83485 75.8014 0.71233ZM85.312 14.6633C89.2483 10.8497 93.1409 6.98986 97.0738 3.17131C98.0824 4.17107 99.1227 5.14381 100.111 6.16377C96.2186 10.0118 92.2886 13.8215 88.3938 17.666C87.3492 16.6819 86.3389 15.6642 85.312 14.6633ZM9.92153 12.3984C11.0061 12.1546 12.1167 12.0179 13.23 12.0601C16.9228 11.9768 20.5099 13.8027 22.7979 16.6001C23.8863 17.9243 24.6815 19.4807 25.122 21.1238C23.4299 21.1299 21.738 21.1249 20.0462 21.1249C19.3005 19.672 18.1587 18.379 16.6688 17.6253C15.8474 17.1874 14.9441 16.8962 14.016 16.7838C13.1494 16.7672 12.263 16.6943 11.4143 16.9089C9.98683 17.2115 8.65997 17.9443 7.6497 18.9772C6.33154 20.1901 5.44802 21.897 5.36989 23.6795C5.20059 25.3775 5.53146 27.1573 6.51971 28.5861C7.47 29.9545 8.81404 31.0948 10.4055 31.6823C13.074 32.6475 16.3041 32.0655 18.3478 30.0943C19.0359 29.4124 19.6316 28.6299 20.0646 27.7679C21.7484 27.7602 23.4328 27.7591 25.1183 27.7679C24.7011 29.5109 23.7924 31.1259 22.6443 32.5097C21.8566 33.3156 21.0838 34.1596 20.1139 34.7596C15.7613 37.6949 9.44095 37.5289 5.34885 34.2105C4.07689 33.151 2.91376 31.9318 2.11465 30.4839C0.641694 27.9253 0.274303 24.8497 0.79552 21.9832C1.23499 19.5538 2.53839 17.3157 4.33447 15.6036C5.84951 14.0603 7.78805 12.8958 9.92153 12.3984ZM27.7 12.0583C29.3072 12.0583 30.9158 12.0583 32.5228 12.0583C32.5215 20.3563 32.5269 28.6535 32.5203 36.9512C30.9131 36.9551 29.3069 36.9485 27.6997 36.9496C27.7 28.6524 27.7 20.3563 27.7 12.0583ZM42.2735 17.0133C43.1875 16.8321 44.123 16.9345 45.0472 16.9111C46.1189 17.0019 47.193 17.1525 48.2122 17.5061C49.2343 17.8535 50.2862 18.2886 51.0019 19.1175C51.8431 20.0968 52.1408 21.3989 52.2064 22.6477C52.2037 27.4149 52.2107 32.1835 52.2037 36.951C50.5728 36.9437 48.9412 36.9843 47.3118 36.9305C47.296 36.2822 47.3246 35.6323 47.3011 34.9851C45.8814 36.1837 44.0043 36.7355 42.1639 36.8745C41.0025 37.0697 39.8007 36.8938 38.6927 36.5299C37.2667 36.0652 36.0922 34.9033 35.6713 33.4861C35.2152 31.9744 35.3105 30.3198 35.8433 28.8399C36.4221 27.3318 37.8169 26.2599 39.3501 25.7705C41.314 25.0901 43.4141 24.9852 45.4451 24.5921C46.1477 24.5921 46.8423 24.1671 47.103 23.521C47.2907 22.8152 47.128 21.9304 46.4931 21.4822C45.7943 21.0318 44.9405 20.9383 44.1247 20.9154C43.3987 20.9369 42.631 20.9447 41.9881 21.3213C41.1527 21.7848 40.7773 22.7067 40.6129 23.5878C38.9979 23.5546 37.3813 23.59 35.7664 23.5623C35.9674 22.0073 36.2997 20.3474 37.4391 19.1679C38.6327 17.7997 40.4825 17.1488 42.2735 17.0133ZM45.8282 27.775C44.874 27.9906 43.9344 28.2692 42.9643 28.4133C42.1925 28.5627 41.3803 28.8065 40.8315 29.3904C40.0692 30.2725 40.013 31.6335 40.6046 32.6153C40.8615 33.0657 41.3713 33.2868 41.8456 33.4477C43.3759 33.7374 45.0561 33.2704 46.1733 32.1951C47.319 30.7922 47.1171 28.8921 47.1132 27.212C46.6628 27.3525 46.2988 27.6912 45.8282 27.775ZM63.7036 17.5806C64.6979 17.3418 65.6755 16.9409 66.7199 17.0367C66.7315 18.6478 66.8205 20.2614 66.7862 21.8741C65.8976 21.7542 64.969 21.657 64.0974 21.9174C62.2162 22.427 60.6431 24.0511 60.4227 25.9791C60.4094 26.4041 60.2924 26.8188 60.2883 27.2454C60.2856 30.4818 60.2924 33.7172 60.2883 36.9539C58.6852 36.9496 57.0802 36.9653 55.4769 36.9448C55.4587 30.5724 55.4727 24.198 55.4858 17.8244C57.0398 17.8101 58.5923 17.8675 60.1448 17.9241C60.1472 18.7107 60.125 19.4982 60.1555 20.2861C61.0639 19.0995 62.2565 18.0732 63.7036 17.5806ZM75.7153 17.0864C76.431 17.016 77.1571 16.9495 77.8778 17.0072C82.2031 17.0607 86.1513 20.3267 87.1826 24.4009C88.0726 27.7307 87.2075 31.5722 84.6326 33.9878C83.143 35.5621 81.099 36.6307 78.9309 36.9512C77.8858 36.9598 76.8402 36.9551 75.7963 36.9539C72.6758 36.5235 69.9643 34.4373 68.4246 31.7956C66.8251 28.8962 66.8186 25.2206 68.3868 22.307C69.8757 19.6257 72.5882 17.5243 75.7153 17.0864ZM76.1037 21.8062C74.6634 22.1256 73.4372 23.1149 72.7031 24.3535C71.6068 26.1573 71.7812 28.6163 73.1489 30.2405C74.5413 32.203 77.4011 32.8666 79.5871 31.8596C80.8578 31.3002 81.8279 30.201 82.3675 28.9575C82.9657 27.5291 82.8573 25.8524 82.1397 24.4854C81.3848 23.1026 79.999 22.0162 78.401 21.7674C77.6369 21.7067 76.8613 21.6849 76.1037 21.8062ZM90.5442 22.5253C94.8383 22.5253 99.1333 22.5224 103.429 22.5278C103.426 23.9246 103.431 25.3228 103.427 26.7207C99.1333 26.7157 94.841 26.7296 90.5471 26.7235C90.5401 25.3239 90.552 23.9244 90.5442 22.5253Z" fill="#EE2323"/>
</svg>
