<svg width="47" height="36" viewBox="0 0 47 36" fill="none" xmlns="http://www.w3.org/2000/svg">
<path d="M25.9852 32.5808C25.9852 33.0722 25.8395 33.5525 25.5665 33.9611C25.2935 34.3696 24.9055 34.688 24.4515 34.8761C23.9976 35.0641 23.498 35.1133 23.0161 35.0174C22.5342 34.9216 22.0915 34.685 21.7441 34.3375C21.3966 33.9901 21.16 33.5474 21.0641 33.0655C20.9683 32.5836 21.0175 32.084 21.2055 31.6301C21.3936 31.1761 21.712 30.7881 22.1205 30.5151C22.5291 30.2421 23.0094 30.0964 23.5008 30.0964C24.1597 30.0964 24.7916 30.3582 25.2575 30.8241C25.7234 31.29 25.9852 31.9219 25.9852 32.5808ZM46.0838 8.35815C39.7165 3.13554 31.7359 0.28125 23.5008 0.28125C15.2656 0.28125 7.28506 3.13554 0.917816 8.35815C0.749659 8.49627 0.610353 8.66615 0.507851 8.8581C0.405349 9.05005 0.341658 9.26031 0.320415 9.47688C0.299172 9.69344 0.320792 9.91207 0.384042 10.1203C0.447292 10.3285 0.550932 10.5222 0.689046 10.6904C0.82716 10.8585 0.997042 10.9978 1.18899 11.1003C1.38094 11.2028 1.5912 11.2665 1.80777 11.2878C2.24514 11.3307 2.68165 11.1981 3.02125 10.9191C8.79578 6.18373 16.0329 3.59578 23.5008 3.59578C30.9687 3.59578 38.2058 6.18373 43.9803 10.9191C44.3199 11.1981 44.7564 11.3307 45.1938 11.2878C45.6312 11.2449 46.0336 11.03 46.3125 10.6904C46.5915 10.3508 46.7241 9.91425 46.6812 9.47688C46.6383 9.0395 46.4234 8.63708 46.0838 8.35815ZM39.4422 15.7637C34.9068 12.173 29.2917 10.2192 23.507 10.2192C17.7223 10.2192 12.1072 12.173 7.5718 15.7637C7.22753 16.0366 7.00576 16.435 6.95529 16.8714C6.90481 17.3078 7.02977 17.7464 7.30266 18.0907C7.57555 18.435 7.97403 18.6567 8.41043 18.7072C8.84684 18.7577 9.28542 18.6327 9.62969 18.3598C13.5796 15.2333 18.4695 13.5322 23.507 13.5322C28.5445 13.5322 33.4344 15.2333 37.3843 18.3598C37.5548 18.495 37.7502 18.5952 37.9594 18.6548C38.1686 18.7145 38.3875 18.7323 38.6036 18.7073C38.8197 18.6823 39.0287 18.615 39.2188 18.5092C39.4089 18.4034 39.5762 18.2612 39.7113 18.0907C39.8465 17.9202 39.9467 17.7248 40.0063 17.5156C40.066 17.3064 40.0838 17.0875 40.0588 16.8714C40.0338 16.6553 39.9665 16.4463 39.8607 16.2562C39.7549 16.0661 39.6127 15.8988 39.4422 15.7637ZM32.7634 23.1671C30.0731 21.2119 26.8327 20.1588 23.507 20.1588C20.1813 20.1588 16.9409 21.2119 14.2506 23.1671C13.8954 23.4257 13.6574 23.8149 13.5891 24.2489C13.5207 24.683 13.6276 25.1265 13.8863 25.4817C14.1449 25.837 14.534 26.0749 14.9681 26.1433C15.4022 26.2116 15.8456 26.1047 16.2009 25.8461C18.324 24.302 20.8818 23.4703 23.507 23.4703C26.1322 23.4703 28.69 24.302 30.8131 25.8461C30.989 25.9741 31.1884 26.0663 31.4 26.1173C31.6115 26.1683 31.831 26.1771 32.0459 26.1433C32.2608 26.1094 32.467 26.0336 32.6526 25.9201C32.8382 25.8066 32.9997 25.6576 33.1277 25.4817C33.2558 25.3058 33.3479 25.1064 33.3989 24.8949C33.4499 24.6834 33.4588 24.4639 33.4249 24.2489C33.3911 24.034 33.3152 23.8278 33.2017 23.6422C33.0882 23.4566 32.9393 23.2952 32.7634 23.1671Z" fill="#222121"/>
</svg>
