<svg width="13" height="10" viewBox="0 0 13 10" fill="none" xmlns="http://www.w3.org/2000/svg">
<path d="M12.854 1.35403L4.85403 9.35403C4.80759 9.40052 4.75245 9.4374 4.69175 9.46256C4.63105 9.48772 4.56599 9.50067 4.50028 9.50067C4.43457 9.50067 4.36951 9.48772 4.30881 9.46256C4.24811 9.4374 4.19296 9.40052 4.14653 9.35403L0.646528 5.85403C0.552708 5.76021 0.5 5.63296 0.5 5.50028C0.5 5.3676 0.552708 5.24035 0.646528 5.14653C0.740348 5.05271 0.867596 5 1.00028 5C1.13296 5 1.26021 5.05271 1.35403 5.14653L4.50028 8.2934L12.1465 0.646528C12.2403 0.552707 12.3676 0.5 12.5003 0.5C12.633 0.5 12.7602 0.552707 12.854 0.646528C12.9478 0.740348 13.0006 0.867596 13.0006 1.00028C13.0006 1.13296 12.9478 1.26021 12.854 1.35403Z" fill="#7E320A"/>
</svg>
