<svg width="13" height="10" viewBox="0 0 13 10" fill="none" xmlns="http://www.w3.org/2000/svg">
<path d="M12.354 1.35403L4.35403 9.35403C4.30759 9.40052 4.25245 9.4374 4.19175 9.46256C4.13105 9.48772 4.06599 9.50067 4.00028 9.50067C3.93457 9.50067 3.86951 9.48772 3.80881 9.46256C3.74811 9.4374 3.69296 9.40052 3.64653 9.35403L0.146528 5.85403C0.0527077 5.76021 0 5.63296 0 5.50028C0 5.3676 0.0527077 5.24035 0.146528 5.14653C0.240348 5.05271 0.367596 5 0.500278 5C0.63296 5 0.760208 5.05271 0.854028 5.14653L4.00028 8.2934L11.6465 0.646528C11.7403 0.552707 11.8676 0.5 12.0003 0.5C12.133 0.5 12.2602 0.552707 12.354 0.646528C12.4478 0.740348 12.5006 0.867596 12.5006 1.00028C12.5006 1.13296 12.4478 1.26021 12.354 1.35403Z" fill="#FF6514"/>
</svg>
